<svg width="2381" height="1002" viewBox="0 0 2381 1002" fill="none" xmlns="http://www.w3.org/2000/svg">
<path d="M2017.3 0.457031H364.111C163.565 0.457031 0.414062 163.609 0.414062 364.154V1001.71H40.5332V364.154C40.5332 185.741 185.681 40.5762 364.111 40.5762H2017.3C2195.72 40.5762 2340.88 185.724 2340.88 364.154V637.984C2340.88 816.397 2195.73 961.562 2017.3 961.562H250.64V1001.68H2017.3C2217.85 1001.68 2381 838.529 2381 637.984V364.154C2381 163.609 2217.85 0.457031 2017.3 0.457031Z" fill="#CABDA9"/>
<path d="M1183.8 878.148H250.641V918.268H1183.8V878.148Z" fill="#CABDA9"/>
<path d="M2017.3 918.267C2171.85 918.267 2297.59 792.542 2297.59 637.983V364.154C2297.59 209.612 2171.86 83.8711 2017.3 83.8711H364.11C209.568 83.8711 83.8281 209.595 83.8281 364.154V1001.71H123.947V364.154C123.947 231.728 231.684 123.99 364.11 123.99H2017.3C2149.73 123.99 2257.47 231.728 2257.47 364.154V637.983C2257.47 770.41 2149.73 878.147 2017.3 878.147H1371.15V918.267H2017.3Z" fill="#CABDA9"/>
<path d="M364.11 207.42H2017.3C2103.73 207.42 2174.05 277.729 2174.05 364.169V637.999C2174.05 721.564 2108.31 790.067 2025.85 794.514V834.666C2130.46 830.186 2214.17 743.696 2214.17 637.999V364.169C2214.17 255.613 2125.86 167.301 2017.3 167.301H364.11C255.554 167.301 167.242 255.613 167.242 364.169V1001.73H207.361V364.169C207.361 277.746 277.67 207.42 364.11 207.42Z" fill="#CABDA9"/>
<path d="M1183.8 794.734H250.641V834.854H1183.8V794.734Z" fill="#CABDA9"/>
<path d="M526.728 354.61C503.425 332.461 473.82 321.395 437.863 321.395C401.907 321.395 372.302 332.561 349 354.843C325.697 377.126 314.062 405.561 314.062 439.98V656.038C314.062 658.83 315.45 660.184 318.158 660.184H408.627C411.385 660.184 412.722 658.797 412.722 656.038V542.936C425.193 550.007 439.385 553.551 455.215 553.551C485.054 553.551 510.279 542.484 530.806 520.335C551.334 498.186 561.648 471.106 561.648 439.111C561.648 404.959 549.997 376.775 526.711 354.626L526.728 354.61ZM461.166 461.477C455.081 467.812 447.442 470.921 438.332 470.921C429.221 470.921 421.565 467.762 415.497 461.477C409.412 455.141 406.387 447.385 406.387 438.174C406.387 428.964 409.429 421.191 415.497 414.872C421.582 408.587 429.221 405.427 438.332 405.427C447.442 405.427 455.098 408.587 461.166 414.872C467.251 421.208 470.276 428.964 470.276 438.174C470.276 447.385 467.234 455.208 461.166 461.477Z" fill="#CABDA9"/>
<path d="M730.682 328.75C701.445 328.75 679.814 337.225 665.806 354.159V334.3C665.806 331.508 664.418 330.154 661.71 330.154H576.724C573.966 330.154 572.629 331.558 572.629 334.3V548.97C572.629 551.762 574.016 553.117 576.724 553.117H667.193C669.951 553.117 671.289 551.728 671.289 548.97V464.018C671.289 454.156 673.177 445.781 677.005 438.843C680.834 431.906 686.082 426.841 692.752 423.631C699.422 420.422 705.774 418.182 711.725 416.929C717.66 415.725 723.978 415.073 730.698 415.073C733.456 415.073 734.794 413.686 734.794 410.928V332.912C734.794 330.12 733.406 328.766 730.698 328.766L730.682 328.75Z" fill="#CABDA9"/>
<path d="M947.429 360.16C924.143 337.693 894.939 326.477 859.952 326.477C824.965 326.477 795.678 337.743 772.242 360.16C748.805 382.626 737.07 410.459 737.07 443.724C737.07 476.99 748.805 504.722 772.242 527.055C795.678 549.388 824.915 560.505 859.952 560.505C894.989 560.505 924.126 549.338 947.429 527.055C970.731 504.722 982.365 476.956 982.365 443.724C982.365 410.492 970.714 382.643 947.429 360.16ZM882.335 466.793C876.251 472.928 868.712 476.004 859.735 476.004C850.758 476.004 843.202 472.928 837.134 466.793C831.05 460.658 828.024 452.885 828.024 443.491C828.024 434.096 831.066 426.323 837.134 420.188C843.219 414.053 850.758 410.977 859.735 410.977C868.712 410.977 876.267 414.053 882.335 420.188C888.42 426.323 891.446 434.096 891.446 443.491C891.446 452.885 888.403 460.658 882.335 466.793Z" fill="#CABDA9"/>
<path d="M1227.13 434.445H1227.23C1227.23 429.513 1228.98 425.284 1232.47 421.74C1235.98 418.196 1240.16 416.441 1245.04 416.441C1249.93 416.441 1254.12 418.213 1257.62 421.74C1261.11 425.284 1262.86 429.513 1262.86 434.445V546.611C1262.86 549.403 1264.25 550.757 1266.96 550.757H1359.23C1361.99 550.757 1363.33 549.353 1363.33 546.611V434.445C1363.33 401.229 1351.78 372.896 1328.61 349.493C1305.46 326.09 1277.59 314.422 1245.01 314.422C1220.05 314.422 1197.35 321.827 1176.96 336.571C1156.25 321.827 1133.55 314.422 1108.91 314.422C1076.04 314.422 1047.99 326.107 1024.84 349.493C1001.67 372.896 990.121 401.179 990.121 434.445V546.611C990.121 549.403 991.492 550.757 994.217 550.757H1086.94C1089.7 550.757 1091.04 549.353 1091.04 546.611V434.445C1091.04 429.513 1092.79 425.284 1096.29 421.74C1099.78 418.196 1103.98 416.441 1108.86 416.441C1113.74 416.441 1117.83 418.213 1121.19 421.74C1124.55 425.267 1126.21 429.513 1126.21 434.445V546.611C1126.21 549.403 1127.6 550.757 1130.3 550.757H1223.03C1225.79 550.757 1227.13 549.353 1227.13 546.611V434.445Z" fill="#CABDA9"/>
<path d="M1406.32 527.036C1429.76 549.369 1459 560.485 1494.03 560.485C1529.07 560.485 1558.21 549.319 1581.51 527.036C1604.81 504.703 1616.45 476.938 1616.45 443.705C1616.45 410.473 1604.8 382.624 1581.51 360.14C1558.21 337.674 1529.02 326.457 1494.03 326.457C1459.05 326.457 1429.76 337.724 1406.32 360.14C1382.89 382.607 1371.15 410.44 1371.15 443.705C1371.15 476.971 1382.9 504.703 1406.32 527.036ZM1471.18 420.169C1477.27 414.034 1484.81 410.958 1493.78 410.958C1502.76 410.958 1510.32 414.034 1516.38 420.169C1522.47 426.304 1525.49 434.077 1525.49 443.471C1525.49 452.866 1522.45 460.639 1516.38 466.774C1510.3 472.909 1502.76 475.985 1493.78 475.985C1484.81 475.985 1477.25 472.909 1471.18 466.774C1465.1 460.639 1462.07 452.866 1462.07 443.471C1462.07 434.077 1465.11 426.304 1471.18 420.169Z" fill="#CABDA9"/>
<path d="M1920.08 700.383L1979.03 597.895C1979.95 596.692 1980 595.338 1979.26 593.984C1978.47 592.58 1977.37 591.895 1975.85 591.895H1880.37C1878.84 591.895 1877.61 592.68 1876.74 594.218L1856.61 638.099L1836.08 594.218C1835.48 592.68 1834.25 591.895 1832.44 591.895H1737.43C1735.9 591.895 1734.75 592.597 1734.01 593.984C1733.23 595.372 1733.2 596.675 1733.78 597.895L1793.17 700.383L1731.07 805.161C1730.47 806.415 1730.52 807.719 1731.31 809.073C1732.09 810.477 1733.2 811.179 1734.72 811.179H1831.59C1833.43 811.179 1834.63 810.427 1835.23 808.856L1856.7 763.17L1877.69 808.856C1878.61 810.394 1879.81 811.179 1881.34 811.179H1978.21C1980.05 811.179 1981.33 810.477 1982.07 809.073C1982.85 807.685 1982.75 806.382 1981.83 805.161L1920.13 700.383H1920.08Z" fill="#CABDA9"/>
<path d="M1439.74 612.743V612.692C1416.44 590.543 1386.83 579.477 1350.87 579.477C1314.92 579.477 1285.31 590.643 1262.01 612.926C1238.71 635.259 1227.07 663.644 1227.07 698.113V914.171C1227.07 916.963 1228.44 918.317 1231.17 918.317H1321.64C1324.4 918.317 1325.73 916.912 1325.73 914.171V801.068C1338.2 808.139 1352.4 811.667 1368.23 811.667C1398.07 811.667 1423.29 800.6 1443.82 778.451C1464.36 756.302 1474.68 729.222 1474.68 697.227C1474.68 663.076 1463.02 634.892 1439.74 612.743ZM1374.23 719.56C1368.14 725.895 1360.5 729.004 1351.39 729.004C1342.28 729.004 1334.64 725.845 1328.56 719.56C1322.47 713.224 1319.45 705.468 1319.45 696.257C1319.45 687.047 1322.49 679.274 1328.56 672.955C1334.64 666.67 1342.28 663.51 1351.39 663.51C1360.5 663.51 1368.16 666.67 1374.23 672.955C1380.31 679.29 1383.34 687.047 1383.34 696.257C1383.34 705.468 1380.3 713.291 1374.23 719.56Z" fill="#CABDA9"/>
<path d="M1771.32 409.94L1771.27 409.991V339.364C1771.27 336.572 1769.89 335.218 1767.18 335.218H1763.73C1725.72 333.831 1723.85 312.434 1723.76 253.542V238.732C1723.76 235.94 1722.38 234.586 1719.67 234.586H1629.2C1626.49 234.586 1625.11 235.973 1625.11 238.732V592.784C1612.63 585.713 1598.46 582.169 1582.61 582.169C1552.77 582.169 1527.55 593.235 1507.02 615.384C1486.49 637.533 1476.18 664.797 1476.18 697.076C1476.18 729.355 1487.83 758.993 1511.12 781.326C1534.4 803.609 1563.97 814.776 1599.75 814.776C1635.52 814.776 1665.07 803.509 1688.38 781.093C1711.68 758.659 1723.83 732.013 1723.83 697.811L1723.33 535.396L1723.83 450.995V414.052H1767.24C1769.95 414.052 1771.34 412.648 1771.34 409.906L1771.32 409.94ZM1621.88 721.131C1615.79 727.266 1608.26 730.341 1599.26 730.341C1590.27 730.341 1582.73 727.266 1576.66 721.131C1570.58 714.996 1567.55 707.223 1567.55 697.829C1567.55 688.434 1570.59 680.661 1576.66 674.526C1582.75 668.391 1590.29 665.315 1599.26 665.315C1608.24 665.315 1615.79 668.391 1621.88 674.526C1627.96 680.661 1630.99 688.434 1630.99 697.829C1630.99 707.223 1627.95 714.996 1621.88 721.131Z" fill="#CABDA9"/>
<path d="M1987.9 363.185L1987.8 363.134C1969.19 340.517 1944.1 327.362 1912.43 323.684C1878.64 320.007 1849.22 328.064 1824.26 347.923C1799.31 367.782 1785 394.311 1781.3 427.576C1777.94 460.507 1786.79 489.259 1807.78 513.882C1828.78 538.489 1856.81 552.831 1891.85 556.826C1908.88 558.682 1926.42 557.763 1944.37 554.035C1962.32 550.357 1978.76 544.356 1993.73 536.031C1995.57 535.095 1996.31 533.557 1996.04 531.417L1980.06 467.26C1979.74 466.057 1979.01 465.171 1977.75 464.703C1976.5 464.235 1975.31 464.336 1974.11 464.937C1946.08 480.617 1921.59 487.27 1900.57 484.796C1892.65 483.86 1885.8 481.587 1880.05 477.859L2010.7 451.113C2012.82 450.511 2013.93 449.107 2013.93 446.967C2015.13 413.752 2006.47 385.785 1987.87 363.185H1987.9ZM1867.23 420.154C1870.59 411.83 1875.6 405.56 1882.27 401.231C1888.94 396.901 1896.6 395.23 1905.1 396.166C1913.95 397.102 1921.22 400.964 1927.02 407.7L1867.23 420.154Z" fill="#CABDA9"/>
</svg>
