<svg width="1701" height="684" viewBox="0 0 1701 684" fill="none" xmlns="http://www.w3.org/2000/svg">
<path d="M213.618 120.024C190.316 97.875 160.711 86.8086 124.754 86.8086C88.7973 86.8086 59.1928 97.9747 35.8903 120.258C12.5877 142.54 0.953125 170.975 0.953125 205.394V421.452C0.953125 424.244 2.3405 425.598 5.04854 425.598H95.5172C98.2754 425.598 99.6128 424.211 99.6128 421.452V308.35C112.083 315.421 126.275 318.965 142.106 318.965C171.944 318.965 197.169 307.898 217.697 285.749C238.225 263.6 248.538 236.52 248.538 204.525C248.538 170.373 236.887 142.19 213.602 120.04L213.618 120.024ZM148.057 226.891C141.972 233.226 134.333 236.336 125.222 236.336C116.112 236.336 108.456 233.176 102.388 226.891C96.3029 220.556 93.2773 212.799 93.2773 203.589C93.2773 194.378 96.3196 186.605 102.388 180.286C108.472 174.001 116.112 170.842 125.222 170.842C134.333 170.842 141.989 174.001 148.057 180.286C154.141 186.622 157.167 194.378 157.167 203.589C157.167 212.799 154.125 220.622 148.057 226.891Z" fill="#CABDA9"/>
<path d="M417.572 94.1641C388.336 94.1641 366.705 102.64 352.696 119.573V99.7136C352.696 96.922 351.309 95.568 348.601 95.568H263.615C260.857 95.568 259.52 96.9721 259.52 99.7136V314.384C259.52 317.176 260.907 318.531 263.615 318.531H354.083C356.842 318.531 358.179 317.143 358.179 314.384V229.432C358.179 219.57 360.068 211.195 363.896 204.257C367.724 197.32 372.973 192.255 379.643 189.045C386.313 185.836 392.665 183.596 398.616 182.343C404.55 181.139 410.869 180.487 417.589 180.487C420.347 180.487 421.685 179.1 421.685 176.342V98.326C421.685 95.5344 420.297 94.1804 417.589 94.1804L417.572 94.1641Z" fill="#CABDA9"/>
<path d="M634.319 125.574C611.033 103.107 581.83 91.8906 546.843 91.8906C511.855 91.8906 482.568 103.157 459.132 125.574C435.696 148.041 423.961 175.873 423.961 209.138C423.961 242.404 435.696 270.136 459.132 292.469C482.568 314.802 511.805 325.919 546.843 325.919C581.88 325.919 611.017 314.752 634.319 292.469C657.622 270.136 669.256 242.37 669.256 209.138C669.256 175.906 657.605 148.057 634.319 125.574ZM569.226 232.207C563.141 238.342 555.602 241.418 546.625 241.418C537.649 241.418 530.093 238.342 524.025 232.207C517.94 226.072 514.915 218.299 514.915 208.905C514.915 199.51 517.957 191.737 524.025 185.602C530.11 179.467 537.649 176.391 546.625 176.391C555.602 176.391 563.158 179.467 569.226 185.602C575.311 191.737 578.336 199.51 578.336 208.905C578.336 218.299 575.294 226.072 569.226 232.207Z" fill="#CABDA9"/>
<path d="M914.016 199.859H914.116C914.116 194.927 915.871 190.698 919.365 187.154C922.875 183.61 927.054 181.855 931.936 181.855C936.817 181.855 941.013 183.627 944.506 187.154C948 190.698 949.755 194.927 949.755 199.859V312.025C949.755 314.817 951.142 316.171 953.85 316.171H1046.12C1048.88 316.171 1050.22 314.767 1050.22 312.025V199.859C1050.22 166.643 1038.67 138.31 1015.5 114.907C992.348 91.5039 964.482 79.8359 931.902 79.8359C906.945 79.8359 884.244 87.2413 863.85 101.985C843.138 87.2413 820.437 79.8359 795.798 79.8359C762.933 79.8359 734.884 91.5206 711.732 114.907C688.563 138.31 677.012 166.593 677.012 199.859V312.025C677.012 314.817 678.382 316.171 681.107 316.171H773.832C776.591 316.171 777.928 314.767 777.928 312.025V199.859C777.928 194.927 779.683 190.698 783.177 187.154C786.671 183.61 790.867 181.855 795.748 181.855C800.629 181.855 804.724 183.627 808.084 187.154C811.444 190.681 813.099 194.927 813.099 199.859V312.025C813.099 314.817 814.486 316.171 817.195 316.171H909.92C912.678 316.171 914.016 314.767 914.016 312.025V199.859Z" fill="#CABDA9"/>
<path d="M1093.21 292.451C1116.65 314.784 1145.89 325.899 1180.92 325.899C1215.96 325.899 1245.1 314.733 1268.4 292.451C1291.7 270.118 1303.34 242.352 1303.34 209.12C1303.34 175.888 1291.69 148.038 1268.4 125.554C1245.1 103.088 1215.91 91.8711 1180.92 91.8711C1145.94 91.8711 1116.65 103.138 1093.21 125.554C1069.78 148.021 1058.04 175.854 1058.04 209.12C1058.04 242.385 1069.79 270.118 1093.21 292.451ZM1158.07 185.583C1164.16 179.448 1171.7 176.373 1180.67 176.373C1189.65 176.373 1197.21 179.448 1203.27 185.583C1209.36 191.718 1212.38 199.491 1212.38 208.885C1212.38 218.28 1209.34 226.053 1203.27 232.188C1197.19 238.323 1189.65 241.399 1180.67 241.399C1171.7 241.399 1164.14 238.323 1158.07 232.188C1151.99 226.053 1148.96 218.28 1148.96 208.885C1148.96 199.491 1152.01 191.718 1158.07 185.583Z" fill="#CABDA9"/>
<path d="M1606.97 465.797L1665.92 363.309C1666.84 362.106 1666.89 360.752 1666.15 359.398C1665.36 357.994 1664.26 357.309 1662.74 357.309H1567.26C1565.74 357.309 1564.5 358.094 1563.63 359.632L1543.5 403.513L1522.98 359.632C1522.37 358.094 1521.14 357.309 1519.33 357.309H1424.32C1422.79 357.309 1421.64 358.011 1420.91 359.398C1420.12 360.786 1420.09 362.089 1420.67 363.309L1480.06 465.797L1417.96 570.575C1417.36 571.829 1417.41 573.133 1418.2 574.487C1418.98 575.891 1420.09 576.593 1421.61 576.593H1518.48C1520.32 576.593 1521.52 575.841 1522.12 574.27L1543.59 528.584L1564.58 574.27C1565.5 575.808 1566.71 576.593 1568.23 576.593H1665.1C1666.94 576.593 1668.22 575.891 1668.96 574.487C1669.74 573.099 1669.64 571.796 1668.72 570.575L1607.02 465.797H1606.97Z" fill="#CABDA9"/>
<path d="M1126.63 378.157V378.106C1103.33 355.957 1073.72 344.891 1037.77 344.891C1001.81 344.891 972.204 356.058 948.902 378.34C925.599 400.673 913.965 429.058 913.965 463.527V679.585C913.965 682.377 915.335 683.731 918.06 683.731H1008.53C1011.29 683.731 1012.62 682.326 1012.62 679.585V566.482C1025.09 573.553 1039.29 577.081 1055.12 577.081C1084.96 577.081 1110.18 566.014 1130.71 543.865C1151.25 521.716 1161.57 494.636 1161.57 462.641C1161.57 428.49 1149.92 400.306 1126.63 378.157ZM1061.12 484.974C1055.03 491.309 1047.39 494.418 1038.28 494.418C1029.17 494.418 1021.53 491.259 1015.45 484.974C1009.36 478.638 1006.34 470.882 1006.34 461.671C1006.34 452.461 1009.38 444.688 1015.45 438.369C1021.53 432.084 1029.17 428.924 1038.28 428.924C1047.39 428.924 1055.05 432.084 1061.12 438.369C1067.2 444.704 1070.23 452.461 1070.23 461.671C1070.23 470.882 1067.19 478.705 1061.12 484.974Z" fill="#CABDA9"/>
<path d="M1458.21 175.354L1458.16 175.405V104.778C1458.16 101.987 1456.78 100.633 1454.07 100.633H1450.62C1412.61 99.2451 1410.74 77.8476 1410.66 18.956V4.14561C1410.66 1.35399 1409.27 0 1406.56 0H1316.09C1313.38 0 1312 1.38742 1312 4.14561V358.198C1299.53 351.127 1285.35 347.583 1269.5 347.583C1239.66 347.583 1214.44 358.649 1193.91 380.798C1173.38 402.947 1163.07 430.211 1163.07 462.49C1163.07 494.769 1174.72 524.407 1198.01 546.74C1221.29 569.023 1250.86 580.19 1286.64 580.19C1322.41 580.19 1351.96 568.923 1375.27 546.507C1398.57 524.073 1410.72 497.427 1410.72 463.226L1410.22 300.81L1410.72 216.409V179.466H1454.13C1456.84 179.466 1458.23 178.062 1458.23 175.32L1458.21 175.354ZM1308.77 486.545C1302.68 492.68 1295.15 495.755 1286.15 495.755C1277.16 495.755 1269.62 492.68 1263.55 486.545C1257.47 480.41 1254.44 472.637 1254.44 463.243C1254.44 453.848 1257.48 446.075 1263.55 439.94C1269.64 433.805 1277.18 430.729 1286.15 430.729C1295.13 430.729 1302.68 433.805 1308.77 439.94C1314.85 446.075 1317.88 453.848 1317.88 463.243C1317.88 472.637 1314.84 480.41 1308.77 486.545Z" fill="#CABDA9"/>
<path d="M1674.79 128.599L1674.69 128.548C1656.09 105.931 1630.99 92.7761 1599.32 89.0985C1565.53 85.4209 1536.11 93.4782 1511.15 113.337C1486.2 133.196 1471.89 159.725 1468.19 192.99C1464.83 225.921 1473.68 254.673 1494.67 279.296C1515.67 303.903 1543.7 318.245 1578.74 322.24C1595.77 324.096 1613.31 323.177 1631.26 319.449C1649.21 315.771 1665.65 309.77 1680.62 301.445C1682.46 300.509 1683.2 298.971 1682.93 296.831L1666.95 232.674C1666.63 231.471 1665.9 230.585 1664.64 230.117C1663.39 229.649 1662.2 229.75 1661 230.351C1632.97 246.031 1608.48 252.684 1587.46 250.21C1579.54 249.274 1572.69 247.001 1566.94 243.273L1697.59 216.527C1699.71 215.925 1700.82 214.521 1700.82 212.381C1702.02 179.166 1693.36 151.199 1674.76 128.599H1674.79ZM1554.12 185.568C1557.48 177.244 1562.49 170.974 1569.16 166.645C1575.83 162.315 1583.49 160.644 1591.99 161.58C1600.84 162.516 1608.11 166.378 1613.91 173.114L1554.12 185.568Z" fill="#CABDA9"/>
</svg>
